<svg width="1200" height="780" viewBox="0 0 1200 780" fill="none" xmlns="http://www.w3.org/2000/svg">
  <rect width="1200" height="780" rx="40" fill="#0A121C"/>
  <circle cx="240" cy="124" r="216" fill="#7BC69D" fill-opacity="0.12"/>
  <circle cx="982" cy="682" r="228" fill="#C9A75E" fill-opacity="0.12"/>
  <rect x="90" y="90" width="1020" height="600" rx="34" fill="#101928" stroke="#243649" stroke-width="2"/>
  <text x="130" y="145" fill="#F0DDAD" font-family="Arial, sans-serif" font-size="28" font-weight="700">Payment Handling System</text>
  <rect x="128" y="200" width="420" height="420" rx="28" fill="#132132"/>
  <rect x="167" y="245" width="212" height="50" rx="25" fill="#1E3045"/>
  <text x="273" y="278" fill="#EEF2F7" font-family="Arial, sans-serif" font-size="24" font-weight="700" text-anchor="middle">Choose Method</text>
  <rect x="167" y="330" width="155" height="86" rx="20" fill="#1A3E2A" stroke="#7BC69D" stroke-width="2"/>
  <rect x="353" y="330" width="155" height="86" rx="20" fill="#1B2436"/>
  <rect x="167" y="440" width="155" height="86" rx="20" fill="#2A2018"/>
  <rect x="353" y="440" width="155" height="86" rx="20" fill="#2E1B1A"/>
  <g fill="#EEF2F7" font-family="Arial, sans-serif" font-size="26" font-weight="700">
    <text x="245" y="382" text-anchor="middle">M-Pesa</text>
    <text x="431" y="382" text-anchor="middle">Card</text>
    <text x="245" y="492" text-anchor="middle">Cash</text>
    <text x="431" y="492" text-anchor="middle">Airtel</text>
  </g>
  <rect x="616" y="200" width="456" height="420" rx="28" fill="#132132"/>
  <rect x="662" y="238" width="364" height="72" rx="20" fill="#0C141F"/>
  <text x="845" y="285" fill="#F0DDAD" font-family="Arial, sans-serif" font-size="38" font-weight="700" text-anchor="middle">KES 8,450</text>
  <rect x="662" y="342" width="364" height="28" rx="14" fill="#1E3045"/>
  <rect x="662" y="342" width="239" height="28" rx="14" fill="#7BC69D"/>
  <rect x="662" y="394" width="364" height="28" rx="14" fill="#1E3045"/>
  <rect x="662" y="394" width="298" height="28" rx="14" fill="#C9A75E"/>
  <rect x="662" y="446" width="364" height="28" rx="14" fill="#1E3045"/>
  <rect x="662" y="446" width="182" height="28" rx="14" fill="#E5564D"/>
  <text x="662" y="334" fill="#9CA8B8" font-family="Arial, sans-serif" font-size="20">M-Pesa</text>
  <text x="662" y="386" fill="#9CA8B8" font-family="Arial, sans-serif" font-size="20">Card</text>
  <text x="662" y="438" fill="#9CA8B8" font-family="Arial, sans-serif" font-size="20">Cash</text>
  <rect x="662" y="512" width="364" height="72" rx="22" fill="url(#paymentAccent)"/>
  <text x="845" y="558" fill="#081019" font-family="Arial, sans-serif" font-size="30" font-weight="700" text-anchor="middle">Receipt Ready</text>
  <defs>
    <linearGradient id="paymentAccent" x1="662" y1="512" x2="1026" y2="584" gradientUnits="userSpaceOnUse">
      <stop stop-color="#C9A75E"/>
      <stop offset="1" stop-color="#7BC69D"/>
    </linearGradient>
  </defs>
</svg>
