<svg width="1200" height="780" viewBox="0 0 1200 780" fill="none" xmlns="http://www.w3.org/2000/svg">
  <rect width="1200" height="780" rx="40" fill="#09111A"/>
  <circle cx="210" cy="128" r="224" fill="#E5564D" fill-opacity="0.14"/>
  <circle cx="1036" cy="154" r="212" fill="#C9A75E" fill-opacity="0.12"/>
  <circle cx="948" cy="672" r="220" fill="#7BC69D" fill-opacity="0.1"/>
  <rect x="96" y="98" width="1008" height="560" rx="32" fill="#101928" stroke="#2A3B4C" stroke-width="2"/>
  <rect x="96" y="98" width="1008" height="66" rx="32" fill="#141F31"/>
  <circle cx="145" cy="131" r="9" fill="#E5564D"/>
  <circle cx="176" cy="131" r="9" fill="#C9A75E"/>
  <circle cx="207" cy="131" r="9" fill="#7BC69D"/>
  <text x="252" y="139" fill="#F0DDAD" font-family="Arial, sans-serif" font-size="28" font-weight="700">Personal Portfolio Website</text>
  <rect x="136" y="202" width="414" height="412" rx="28" fill="#0D141F"/>
  <text x="180" y="266" fill="#F0DDAD" font-family="Arial, sans-serif" font-size="22" font-weight="700">George Benedict Mwali</text>
  <text x="180" y="304" fill="#EEF2F7" font-family="Arial, sans-serif" font-size="54" font-weight="700">Design.</text>
  <text x="180" y="362" fill="#EEF2F7" font-family="Arial, sans-serif" font-size="54" font-weight="700">Build.</text>
  <text x="180" y="420" fill="#EEF2F7" font-family="Arial, sans-serif" font-size="54" font-weight="700">Present.</text>
  <rect x="180" y="476" width="168" height="54" rx="27" fill="url(#portfolioAccent)"/>
  <rect x="366" y="476" width="146" height="54" rx="27" fill="#1A2636" stroke="#3E4F61"/>
  <text x="264" y="511" fill="#081019" font-family="Arial, sans-serif" font-size="20" font-weight="700" text-anchor="middle">View Work</text>
  <text x="439" y="511" fill="#EEF2F7" font-family="Arial, sans-serif" font-size="20" font-weight="700" text-anchor="middle">Contact</text>
  <rect x="596" y="202" width="468" height="126" rx="28" fill="#132132"/>
  <rect x="628" y="236" width="164" height="58" rx="18" fill="#1A2739"/>
  <rect x="814" y="236" width="218" height="58" rx="18" fill="#1A2739"/>
  <rect x="596" y="354" width="224" height="260" rx="28" fill="#132132"/>
  <rect x="840" y="354" width="224" height="260" rx="28" fill="#132132"/>
  <rect x="628" y="394" width="160" height="24" rx="12" fill="#C9A75E"/>
  <rect x="628" y="438" width="130" height="16" rx="8" fill="#3E5164"/>
  <rect x="628" y="468" width="152" height="16" rx="8" fill="#3E5164"/>
  <rect x="628" y="498" width="114" height="16" rx="8" fill="#3E5164"/>
  <circle cx="952" cy="450" r="56" fill="url(#portraitGlow)"/>
  <rect x="892" y="534" width="120" height="18" rx="9" fill="#C9A75E"/>
  <rect x="904" y="566" width="96" height="16" rx="8" fill="#3E5164"/>
  <defs>
    <linearGradient id="portfolioAccent" x1="180" y1="476" x2="348" y2="530" gradientUnits="userSpaceOnUse">
      <stop stop-color="#C9A75E"/>
      <stop offset="1" stop-color="#E5564D"/>
    </linearGradient>
    <radialGradient id="portraitGlow" cx="0" cy="0" r="1" gradientUnits="userSpaceOnUse" gradientTransform="translate(952 450) rotate(90) scale(56)">
      <stop stop-color="#F0DDAD"/>
      <stop offset="1" stop-color="#B56546"/>
    </radialGradient>
  </defs>
</svg>
