<svg width="1200" height="780" viewBox="0 0 1200 780" fill="none" xmlns="http://www.w3.org/2000/svg">
  <rect width="1200" height="780" rx="40" fill="#09111A"/>
  <rect x="90" y="78" width="1020" height="624" rx="30" fill="#101928" stroke="#23374B" stroke-width="2"/>
  <rect x="90" y="78" width="1020" height="64" rx="30" fill="#131E2F"/>
  <circle cx="138" cy="110" r="8" fill="#E5564D"/>
  <circle cx="166" cy="110" r="8" fill="#C9A75E"/>
  <circle cx="194" cy="110" r="8" fill="#7BC69D"/>
  <text x="230" y="118" fill="#F0DDAE" font-family="Arial, sans-serif" font-size="26" font-weight="700">Personal Portfolio Website</text>
  <rect x="126" y="170" width="948" height="92" rx="24" fill="#141F31"/>
  <text x="160" y="224" fill="#F0DDAE" font-family="Arial, sans-serif" font-size="26" font-weight="700">George Benedict Mwali</text>
  <rect x="786" y="194" width="110" height="40" rx="20" fill="#1E3045"/>
  <rect x="912" y="194" width="126" height="40" rx="20" fill="url(#portfolioAccent)"/>
  <text x="841" y="220" fill="#EEF2F7" font-family="Arial, sans-serif" font-size="18" font-weight="700" text-anchor="middle">About</text>
  <text x="975" y="220" fill="#081019" font-family="Arial, sans-serif" font-size="18" font-weight="700" text-anchor="middle">Contact</text>
  <rect x="126" y="286" width="440" height="374" rx="28" fill="#0D141F"/>
  <text x="162" y="336" fill="#F0DDAE" font-family="Arial, sans-serif" font-size="18" font-weight="700">Creative Technologist</text>
  <text x="162" y="392" fill="#EEF2F7" font-family="Arial, sans-serif" font-size="58" font-weight="700">Design.</text>
  <text x="162" y="450" fill="#EEF2F7" font-family="Arial, sans-serif" font-size="58" font-weight="700">Build.</text>
  <text x="162" y="508" fill="#EEF2F7" font-family="Arial, sans-serif" font-size="58" font-weight="700">Present.</text>
  <rect x="162" y="550" width="168" height="54" rx="27" fill="url(#portfolioAccent)"/>
  <rect x="348" y="550" width="146" height="54" rx="27" fill="#1A2636" stroke="#3E4F61"/>
  <text x="246" y="584" fill="#081019" font-family="Arial, sans-serif" font-size="20" font-weight="700" text-anchor="middle">View Work</text>
  <text x="421" y="584" fill="#EEF2F7" font-family="Arial, sans-serif" font-size="20" font-weight="700" text-anchor="middle">Message</text>
  <rect x="596" y="286" width="478" height="166" rx="28" fill="#141F31"/>
  <text x="628" y="328" fill="#9CA8B8" font-family="Arial, sans-serif" font-size="18" font-weight="700">Featured Sections</text>
  <rect x="628" y="348" width="128" height="76" rx="18" fill="#1B2A40"/>
  <rect x="774" y="348" width="128" height="76" rx="18" fill="#22384A"/>
  <rect x="920" y="348" width="122" height="76" rx="18" fill="#2C231B"/>
  <g fill="#EEF2F7" font-family="Arial, sans-serif" font-size="18" font-weight="700">
    <text x="692" y="392" text-anchor="middle">Skills</text>
    <text x="838" y="392" text-anchor="middle">Projects</text>
    <text x="981" y="392" text-anchor="middle">Design</text>
  </g>
  <rect x="596" y="476" width="224" height="184" rx="28" fill="#141F31"/>
  <text x="628" y="518" fill="#9CA8B8" font-family="Arial, sans-serif" font-size="18" font-weight="700">Selected Work</text>
  <rect x="628" y="538" width="160" height="20" rx="10" fill="#C9A75E"/>
  <rect x="628" y="574" width="132" height="14" rx="7" fill="#425567"/>
  <rect x="628" y="602" width="154" height="14" rx="7" fill="#425567"/>
  <rect x="850" y="476" width="224" height="184" rx="28" fill="#141F31"/>
  <text x="882" y="518" fill="#9CA8B8" font-family="Arial, sans-serif" font-size="18" font-weight="700">Profile</text>
  <circle cx="962" cy="572" r="48" fill="url(#portraitGlow)"/>
  <rect x="906" y="632" width="112" height="16" rx="8" fill="#C9A75E"/>
  <defs>
    <linearGradient id="portfolioAccent" x1="912" y1="194" x2="1038" y2="234" gradientUnits="userSpaceOnUse">
      <stop stop-color="#C9A75E"/>
      <stop offset="1" stop-color="#E5564D"/>
    </linearGradient>
    <radialGradient id="portraitGlow" cx="0" cy="0" r="1" gradientUnits="userSpaceOnUse" gradientTransform="translate(962 572) rotate(90) scale(48)">
      <stop stop-color="#F0DDAE"/>
      <stop offset="1" stop-color="#B56546"/>
    </radialGradient>
  </defs>
</svg>
