<svg width="1200" height="780" viewBox="0 0 1200 780" fill="none" xmlns="http://www.w3.org/2000/svg">
  <rect width="1200" height="780" rx="40" fill="#09121A"/>
  <rect x="84" y="76" width="1032" height="628" rx="30" fill="#101928" stroke="#23374B" stroke-width="2"/>
  <rect x="84" y="76" width="1032" height="64" rx="30" fill="#131E2F"/>
  <circle cx="132" cy="108" r="8" fill="#E5564D"/>
  <circle cx="160" cy="108" r="8" fill="#C9A75E"/>
  <circle cx="188" cy="108" r="8" fill="#7BC69D"/>
  <text x="224" y="116" fill="#F0DDAE" font-family="Arial, sans-serif" font-size="26" font-weight="700">Payment Handling System</text>
  <rect x="122" y="172" width="314" height="494" rx="24" fill="#141F31"/>
  <text x="154" y="212" fill="#9CA8B8" font-family="Arial, sans-serif" font-size="18" font-weight="700">Payment Methods</text>
  <rect x="150" y="238" width="258" height="82" rx="18" fill="#17372A" stroke="#7BC69D" stroke-width="2"/>
  <rect x="150" y="338" width="258" height="82" rx="18" fill="#1A2638"/>
  <rect x="150" y="438" width="258" height="82" rx="18" fill="#2C231B"/>
  <rect x="150" y="538" width="258" height="82" rx="18" fill="#2F1D1B"/>
  <g fill="#EEF2F7" font-family="Arial, sans-serif" font-size="26" font-weight="700">
    <text x="279" y="286" text-anchor="middle">M-Pesa</text>
    <text x="279" y="386" text-anchor="middle">Card</text>
    <text x="279" y="486" text-anchor="middle">Cash</text>
    <text x="279" y="586" text-anchor="middle">Airtel Money</text>
  </g>
  <rect x="468" y="172" width="302" height="250" rx="24" fill="#141F31"/>
  <text x="500" y="212" fill="#9CA8B8" font-family="Arial, sans-serif" font-size="18" font-weight="700">Transaction Summary</text>
  <rect x="500" y="236" width="238" height="68" rx="18" fill="#09111A"/>
  <text x="619" y="280" fill="#F0DDAE" font-family="Arial, sans-serif" font-size="34" font-weight="700" text-anchor="middle">KES 8,450</text>
  <text x="500" y="338" fill="#9CA8B8" font-family="Arial, sans-serif" font-size="18">Customer</text>
  <text x="738" y="338" fill="#EEF2F7" font-family="Arial, sans-serif" font-size="18" text-anchor="end">Walk-in Client</text>
  <text x="500" y="376" fill="#9CA8B8" font-family="Arial, sans-serif" font-size="18">Status</text>
  <text x="738" y="376" fill="#7BC69D" font-family="Arial, sans-serif" font-size="18" font-weight="700" text-anchor="end">Confirmed</text>
  <rect x="802" y="172" width="276" height="494" rx="24" fill="#141F31"/>
  <text x="834" y="212" fill="#9CA8B8" font-family="Arial, sans-serif" font-size="18" font-weight="700">Receipt Panel</text>
  <rect x="834" y="236" width="212" height="320" rx="18" fill="#F7F4EA"/>
  <text x="860" y="278" fill="#1A1F27" font-family="Arial, sans-serif" font-size="24" font-weight="700">Receipt</text>
  <line x1="860" y1="298" x2="1020" y2="298" stroke="#D2C8B0" stroke-width="2"/>
  <g fill="#444E5B" font-family="Arial, sans-serif" font-size="18">
    <text x="860" y="334">Item</text>
    <text x="1010" y="334" text-anchor="end">Amount</text>
    <text x="860" y="376">Order Payment</text>
    <text x="1010" y="376" text-anchor="end">8,000</text>
    <text x="860" y="416">Service Fee</text>
    <text x="1010" y="416" text-anchor="end">450</text>
    <text x="860" y="470">Method</text>
    <text x="1010" y="470" text-anchor="end">M-Pesa</text>
  </g>
  <line x1="860" y1="492" x2="1020" y2="492" stroke="#D2C8B0" stroke-width="2"/>
  <text x="860" y="532" fill="#1A1F27" font-family="Arial, sans-serif" font-size="22" font-weight="700">Total</text>
  <text x="1010" y="532" fill="#1A1F27" font-family="Arial, sans-serif" font-size="22" font-weight="700" text-anchor="end">8,450</text>
  <rect x="834" y="584" width="212" height="52" rx="18" fill="url(#paymentAccent)"/>
  <text x="940" y="617" fill="#081019" font-family="Arial, sans-serif" font-size="22" font-weight="700" text-anchor="middle">Print Receipt</text>
  <rect x="468" y="448" width="302" height="218" rx="24" fill="#141F31"/>
  <text x="500" y="488" fill="#9CA8B8" font-family="Arial, sans-serif" font-size="18" font-weight="700">Payment Breakdown</text>
  <text x="500" y="530" fill="#9CA8B8" font-family="Arial, sans-serif" font-size="18">M-Pesa</text>
  <rect x="500" y="542" width="238" height="22" rx="11" fill="#22384A"/>
  <rect x="500" y="542" width="186" height="22" rx="11" fill="#7BC69D"/>
  <text x="500" y="592" fill="#9CA8B8" font-family="Arial, sans-serif" font-size="18">Card</text>
  <rect x="500" y="604" width="238" height="22" rx="11" fill="#22384A"/>
  <rect x="500" y="604" width="96" height="22" rx="11" fill="#C9A75E"/>
  <defs>
    <linearGradient id="paymentAccent" x1="834" y1="584" x2="1046" y2="636" gradientUnits="userSpaceOnUse">
      <stop stop-color="#C9A75E"/>
      <stop offset="1" stop-color="#7BC69D"/>
    </linearGradient>
  </defs>
</svg>
