<svg width="1200" height="780" viewBox="0 0 1200 780" fill="none" xmlns="http://www.w3.org/2000/svg">
  <rect width="1200" height="780" rx="40" fill="#0A111B"/>
  <rect x="88" y="78" width="1024" height="624" rx="30" fill="#101928" stroke="#23374B" stroke-width="2"/>
  <rect x="88" y="78" width="1024" height="64" rx="30" fill="#131E2F"/>
  <circle cx="136" cy="110" r="8" fill="#E5564D"/>
  <circle cx="164" cy="110" r="8" fill="#C9A75E"/>
  <circle cx="192" cy="110" r="8" fill="#7BC69D"/>
  <text x="228" y="118" fill="#F0DDAE" font-family="Arial, sans-serif" font-size="26" font-weight="700">Scientific Calculator</text>
  <rect x="128" y="176" width="246" height="486" rx="24" fill="#141F31"/>
  <text x="160" y="216" fill="#9CA8B8" font-family="Arial, sans-serif" font-size="18" font-weight="700">Modes</text>
  <rect x="154" y="238" width="194" height="56" rx="18" fill="#1B2A40"/>
  <rect x="154" y="310" width="194" height="56" rx="18" fill="#23384B"/>
  <rect x="154" y="382" width="194" height="56" rx="18" fill="#111B29"/>
  <rect x="154" y="454" width="194" height="56" rx="18" fill="#111B29"/>
  <g fill="#EEF2F7" font-family="Arial, sans-serif" font-size="22" font-weight="700">
    <text x="251" y="273" text-anchor="middle">Basic</text>
    <text x="251" y="345" text-anchor="middle">Scientific</text>
    <text x="251" y="417" text-anchor="middle">History</text>
    <text x="251" y="489" text-anchor="middle">Memory</text>
  </g>
  <rect x="406" y="176" width="666" height="128" rx="24" fill="#09111A" stroke="#24384B"/>
  <text x="438" y="216" fill="#9CA8B8" font-family="Arial, sans-serif" font-size="18" font-weight="700">Expression</text>
  <text x="1028" y="214" fill="#7BC69D" font-family="Arial, sans-serif" font-size="18" font-weight="700" text-anchor="end">Ready</text>
  <text x="1028" y="260" fill="#F0DDAE" font-family="Arial, sans-serif" font-size="30" font-weight="700" text-anchor="end">sin(45) + 12 x 12</text>
  <text x="1028" y="290" fill="#EEF2F7" font-family="Arial, sans-serif" font-size="48" font-weight="700" text-anchor="end">150.7071</text>
  <rect x="406" y="330" width="666" height="332" rx="24" fill="#141F31"/>
  <g>
    <rect x="438" y="360" width="110" height="68" rx="16" fill="#22364A"/>
    <rect x="566" y="360" width="110" height="68" rx="16" fill="#22364A"/>
    <rect x="694" y="360" width="110" height="68" rx="16" fill="#22364A"/>
    <rect x="822" y="360" width="110" height="68" rx="16" fill="#22364A"/>
    <rect x="950" y="360" width="90" height="68" rx="16" fill="#C9A75E"/>
    <rect x="438" y="444" width="110" height="68" rx="16" fill="#182636"/>
    <rect x="566" y="444" width="110" height="68" rx="16" fill="#182636"/>
    <rect x="694" y="444" width="110" height="68" rx="16" fill="#182636"/>
    <rect x="822" y="444" width="110" height="68" rx="16" fill="#182636"/>
    <rect x="950" y="444" width="90" height="152" rx="16" fill="url(#calcAccent)"/>
    <rect x="438" y="528" width="110" height="68" rx="16" fill="#182636"/>
    <rect x="566" y="528" width="110" height="68" rx="16" fill="#182636"/>
    <rect x="694" y="528" width="110" height="68" rx="16" fill="#182636"/>
    <rect x="822" y="528" width="110" height="68" rx="16" fill="#182636"/>
  </g>
  <g fill="#EEF2F7" font-family="Arial, sans-serif" font-size="28" font-weight="700">
    <text x="493" y="403" text-anchor="middle">SIN</text>
    <text x="621" y="403" text-anchor="middle">COS</text>
    <text x="749" y="403" text-anchor="middle">TAN</text>
    <text x="877" y="403" text-anchor="middle">SQRT</text>
    <text x="995" y="403" text-anchor="middle" fill="#081019">x2</text>
    <text x="493" y="487" text-anchor="middle">7</text>
    <text x="621" y="487" text-anchor="middle">8</text>
    <text x="749" y="487" text-anchor="middle">9</text>
    <text x="877" y="487" text-anchor="middle">/</text>
    <text x="493" y="571" text-anchor="middle">4</text>
    <text x="621" y="571" text-anchor="middle">5</text>
    <text x="749" y="571" text-anchor="middle">6</text>
    <text x="877" y="571" text-anchor="middle">*</text>
    <text x="995" y="532" text-anchor="middle" fill="#081019">=</text>
  </g>
  <defs>
    <linearGradient id="calcAccent" x1="950" y1="444" x2="1040" y2="596" gradientUnits="userSpaceOnUse">
      <stop stop-color="#C9A75E"/>
      <stop offset="1" stop-color="#E5564D"/>
    </linearGradient>
  </defs>
</svg>
